<?xml version="1.0" encoding="UTF-8" standalone="no"?>
<!DOCTYPE svg
  PUBLIC "-//W3C//DTD SVG 1.1//EN" "http://www.w3.org/Graphics/SVG/1.1/DTD/svg11.dtd">
<svg xmlns="http://www.w3.org/2000/svg"
     version="1.1"
     width="100%"
     height="100%"
     preserveAspectRatio="xMinYMid"
     viewBox="0 0 300 300">
   <path fill="violet"
         stroke="white"
         stroke-width="1"
         transform="translate(60 60) rotate(270)"
         d="M 50 0 A 50 50 0 0 1 -20.840609426231257 45.44963144782673 L 0 0 Z"/>
   <text text-anchor="middle"
         fill="black"
         transform="translate(60 60)"
         font-family="Arial"
         font-size="5"
         x="29.694399283363865"
         y="-18.52680898590363">32%</text>
   <path fill="orangered"
         stroke="white"
         stroke-width="1"
         transform="translate(60 60) rotate(384.6368715083799)"
         d="M 50 0 A 50 50 0 0 1 24.747599010464608 43.44601642518277 L 0 0 Z"/>
   <text text-anchor="middle"
         fill="black"
         transform="translate(60 60)"
         font-family="Arial"
         font-size="5"
         x="19.656281517433293"
         y="28.959119408355818">17%</text>
   <path fill="navajowhite"
         stroke="white"
         stroke-width="1"
         transform="translate(60 60) rotate(444.97206703910615)"
         d="M 50 0 A 50 50 0 0 1 30.583973838135787 39.55528465664513 L 0 0 Z"/>
   <text text-anchor="middle"
         fill="black"
         transform="translate(60 60)"
         font-family="Arial"
         font-size="5"
         x="-13.285122673067262"
         y="32.38063488509072">15%</text>
   <path fill="teal"
         stroke="white"
         stroke-width="1"
         transform="translate(60 60) rotate(497.2625698324022)"
         d="M 50 0 A 50 50 0 0 1 38.17725039987101 32.287730671348655 L 0 0 Z"/>
   <text text-anchor="middle"
         fill="black"
         transform="translate(60 60)"
         font-family="Arial"
         font-size="5"
         x="-32.610181091871326"
         y="12.711258362387184">11%</text>
   <path fill="limegreen"
         stroke="white"
         stroke-width="1"
         transform="translate(60 60) rotate(537.4860335195531)"
         d="M 50 0 A 50 50 0 0 1 39.28681937024733 30.928075009116874 L 0 0 Z"/>
   <text text-anchor="middle"
         fill="black"
         transform="translate(60 60)"
         font-family="Arial"
         font-size="5"
         x="-33.28130972854039"
         y="-10.833024635482143">11%</text>
   <path fill="hotpink"
         stroke="white"
         stroke-width="1"
         transform="translate(60 60) rotate(575.6983240223464)"
         d="M 50 0 A 50 50 0 0 1 43.22834689485148 25.125883561347344 L 0 0 Z"/>
   <text text-anchor="middle"
         fill="black"
         transform="translate(60 60)"
         font-family="Arial"
         font-size="5"
         x="-21.392652866763513"
         y="-27.701162490447125">8%</text>
   <path fill="maroon"
         stroke="white"
         stroke-width="1"
         transform="translate(60 60) rotate(605.8659217877096)"
         d="M 50 0 A 50 50 0 0 1 45.62981147542135 20.44309919551109 L 0 0 Z"/>
   <text text-anchor="middle"
         fill="black"
         transform="translate(60 60)"
         font-family="Arial"
         font-size="5"
         x="-6.345813458029291"
         y="-34.41991649548114">7%</text>
   <rect x="125"
         y="10"
         rx="1"
         ry="1"
         width="10"
         height="5"
         fill="violet"
         stroke="black"
         stroke-width="0.5"/>
   <text text-anchor="start"
         x="140"
         y="14"
         font-family="Arial"
         font-size="5">usadold (57)</text>
   <rect x="125"
         y="18"
         rx="1"
         ry="1"
         width="10"
         height="5"
         fill="orangered"
         stroke="black"
         stroke-width="0.5"/>
   <text text-anchor="start"
         x="140"
         y="22"
         font-family="Arial"
         font-size="5">incaving (30)</text>
   <rect x="125"
         y="26"
         rx="1"
         ry="1"
         width="10"
         height="5"
         fill="navajowhite"
         stroke="black"
         stroke-width="0.5"/>
   <text text-anchor="start"
         x="140"
         y="30"
         font-family="Arial"
         font-size="5">tribles (26)</text>
   <rect x="125"
         y="34"
         rx="1"
         ry="1"
         width="10"
         height="5"
         fill="teal"
         stroke="black"
         stroke-width="0.5"/>
   <text text-anchor="start"
         x="140"
         y="38"
         font-family="Arial"
         font-size="5">todeces (20)</text>
   <rect x="125"
         y="42"
         rx="1"
         ry="1"
         width="10"
         height="5"
         fill="limegreen"
         stroke="black"
         stroke-width="0.5"/>
   <text text-anchor="start"
         x="140"
         y="46"
         font-family="Arial"
         font-size="5">synoner (19)</text>
   <rect x="125"
         y="50"
         rx="1"
         ry="1"
         width="10"
         height="5"
         fill="hotpink"
         stroke="black"
         stroke-width="0.5"/>
   <text text-anchor="start"
         x="140"
         y="54"
         font-family="Arial"
         font-size="5">ganipuble (15)</text>
   <rect x="125"
         y="58"
         rx="1"
         ry="1"
         width="10"
         height="5"
         fill="maroon"
         stroke="black"
         stroke-width="0.5"/>
   <text text-anchor="start"
         x="140"
         y="62"
         font-family="Arial"
         font-size="5">cordrun (12)</text>
</svg>
