<svg height="42.333336mm" viewBox="0 0 89.958328 42.333336" width="89.958328mm" xmlns="http://www.w3.org/2000/svg" xmlns:xlink="http://www.w3.org/1999/xlink"><clipPath id="a"><path d="m0 0h255v120h-255z"/></clipPath><clipPath id="b"><path d="m0 0h255v120h-255z"/></clipPath><clipPath id="c"><path d="m0 0h255v120h-255z"/></clipPath><clipPath id="d"><path d="m0 0h255v120h-255z"/></clipPath><g fill="#231f20"><path clip-path="url(#a)" d="m146.051 112.867c-9.262 0-16.875-4.625-22.84-13.867-4.25-6.586-6.977-14.844-8.195-24.754-1.262 9.391-3.766 17.359-7.524 23.891-5.656 9.82-12.953 14.73-21.887 14.73-.808 0-1.601-.055-2.382-.133l.035.133h-76.149v-112.867h-3.078c-2.226 0-4.031 1.809-4.031 4.043v111.914c0 2.231 1.805 4.043 4.031 4.043h164.41c-.796-5.461-1.668-16.867-2.605-19.457-4.457 8.215-11.051 12.324-19.785 12.324" transform="matrix(.35277776451 0 0 .35277777785 .000017 0)"/><path clip-path="url(#b)" d="m247.551 98.137c-6.535 9.82-14.965 14.73-25.289 14.73-10.395 0-18.867-4.785-25.418-14.355-6.551-9.567-9.828-22.367-9.828-38.399 0-15.332 3.132-27.992 9.394-37.988 6.262-9.992 14.953-14.992 26.07-14.992 10.29 0 18.672 4.711 25.149 14.129 3.297 4.793 5.754 10.406 7.371 16.836v-32.629c0-3.02-2.441-5.469-5.449-5.469h-217.356c-3.007 0-5.449 2.449-5.449 5.469v80.644h31.598c-2.16-7.433-3.246-16.101-3.246-26 0-15.332 2.711-27.992 8.129-37.988 5.421-9.992 12.945-14.992 22.566-14.992 8.902 0 16.16 4.711 21.766 14.129 4.035 6.777 6.609 15.195 7.742 25.242 1.304-8.949 3.84-16.856 7.621-23.703 5.773-10.446 14.359-15.668 25.762-15.668 8.558 0 15.449 3.105 20.679 9.32 5.227 6.211 8.61 15.027 10.157 26.449l-21.368 3.008c-1.05-10.672-4.332-16.008-9.84-16.008-7.226 0-10.839 9.821-10.839 29.457 0 11.875 1.16 19.703 3.472 23.485 2.317 3.785 5.121 5.676 8.422 5.676 2.664 0 4.938-1.153 6.813-3.458 1.875-2.304 2.832-5.46 2.867-9.468h-11.891v-21.793h32.364v66.199h70.031c3.008 0 5.449-2.449 5.449-5.469v-33.984c-1.633 6.707-4.113 12.574-7.449 17.59" transform="matrix(.35277776451 0 0 .35277777785 .000017 0)"/><path clip-path="url(#c)" d="m86.586 83.594c2.598-4.098 5.488-12.098 8.668-24.004 4.598-17.227 4.016-26.617-1.746-28.164-6.219-1.672-11.949 7.316-17.196 26.961-4.921 18.437-4.398 28.461 1.579 30.066 3.199.859 6.097-.758 8.695-4.859" transform="matrix(.35277776451 0 0 .35277777785 .000017 0)"/><path clip-path="url(#d)" d="m223.008 83.699c2.597-4.101 5.488-12.101 8.668-24.004 4.597-17.23 4.015-26.617-1.746-28.168-6.219-1.672-11.95 7.317-17.196 26.965-4.922 18.438-4.398 28.457 1.578 30.063 3.2.863 6.098-.758 8.696-4.856" transform="matrix(.35277776451 0 0 .35277777785 .000017 0)"/></g></svg>
